<svg xmlns="http://www.w3.org/2000/svg" width="256" height="256" viewBox="0 0 256 256" role="img"><title>N18 桂冠文化书</title><defs>
      <linearGradient id="gold" x1="0" y1="0" x2="1" y2="1"><stop stop-color="#FFF0BD"/><stop offset=".35" stop-color="#D6B678"/><stop offset=".7" stop-color="#85613C"/><stop offset="1" stop-color="#EDCE91"/></linearGradient>
      <radialGradient id="enamel" cx=".38" cy=".25" r=".85"><stop stop-color="#253946"/><stop offset="1" stop-color="#101820"/></radialGradient>
      <linearGradient id="ink" x1="0" y1="0" x2="0" y2="1"><stop stop-color="#F8E8BC"/><stop offset="1" stop-color="#C69A59"/></linearGradient>
    </defs><path d="M128 9L231 68V188L128 247 25 188V68Z" fill="url(#gold)" stroke="none"/><path d="M128 16L225 72V184L128 240 31 184V72Z" fill="#0B131B" stroke="none"/><path d="M128 22L219 75V181L128 234 37 181V75Z" fill="url(#enamel)" stroke="#8B744F" stroke-width="1.5"/><path d="M38 75L128 23 218 75" fill="none" stroke="#E7CB93" stroke-width="1.4"/><g fill="#D6B678" stroke="none"><polygon points="128.00,27.00 128.96,30.04 132.00,31.00 128.96,31.96 128.00,35.00 127.04,31.96 124.00,31.00 127.04,30.04" fill="currentColor" stroke="none"/><polygon points="128.00,219.00 128.96,222.04 132.00,223.00 128.96,223.96 128.00,227.00 127.04,223.96 124.00,223.00 127.04,222.04" fill="currentColor" stroke="none"/></g><g transform="translate(40 36) scale(1.375)" fill="none" stroke="url(#ink)" color="#EBD29C" stroke-width="4.3" stroke-linecap="round" stroke-linejoin="round"><g transform="translate(64 75) scale(1.05)"><path d="M0-17Q-18-30-38-23V22Q-19 17 0 30Q19 17 38 22V-23Q18-30 0-17Z" fill="#35433F"/><path d="M0-16V29M-30-9Q-18-12-9-5M9-5Q18-12 30-9M-30 3Q-18 0-9 7M9 7Q18 0 30 3" fill="none" stroke-width="3"/></g><g transform="translate(64 76) scale(1.45)"><path d="M-3 26Q-31 10-24-24M3 26Q31 10 24-24" fill="none" stroke-width="2.5"/><g transform="translate(-17 15) rotate(-58) scale(0.42)"><path d="M0 0Q-15-10 0-29Q15-10 0 0Z" fill="#35433F"/><path d="M0-4V-21" fill="none" stroke-width="2"/></g><g transform="translate(-23 3) rotate(-66) scale(0.42)"><path d="M0 0Q-15-10 0-29Q15-10 0 0Z" fill="#35433F"/><path d="M0-4V-21" fill="none" stroke-width="2"/></g><g transform="translate(-26 -10) rotate(-78) scale(0.42)"><path d="M0 0Q-15-10 0-29Q15-10 0 0Z" fill="#35433F"/><path d="M0-4V-21" fill="none" stroke-width="2"/></g><g transform="translate(17 15) rotate(58) scale(0.42)"><path d="M0 0Q-15-10 0-29Q15-10 0 0Z" fill="#35433F"/><path d="M0-4V-21" fill="none" stroke-width="2"/></g><g transform="translate(23 3) rotate(66) scale(0.42)"><path d="M0 0Q-15-10 0-29Q15-10 0 0Z" fill="#35433F"/><path d="M0-4V-21" fill="none" stroke-width="2"/></g><g transform="translate(26 -10) rotate(78) scale(0.42)"><path d="M0 0Q-15-10 0-29Q15-10 0 0Z" fill="#35433F"/><path d="M0-4V-21" fill="none" stroke-width="2"/></g></g><polygon points="64.00,9.00 67.13,18.87 77.00,22.00 67.13,25.13 64.00,35.00 60.87,25.13 51.00,22.00 60.87,18.87" fill="currentColor" stroke="none"/></g></svg>
